#!OML:ASF F:\VICON\USERDATA\INSTALL\rory3\rory3.ASF
:FULLY-SPECIFIED
:DEGREES
651
root 0.106007 15.6608 -6.29625 339.289 -26.9699 -358.725
lowerback 24.1208 1.65067 -1.49617
upperback 13.3055 1.47443 -0.796173
thorax 1.22068 0.546357 -0.337825
lowerneck -8.29435 0.416338 -5.76593
upperneck 5.12461 0.896973 4.41697
head 3.10824 0.496808 2.54496
rclavicle 4.59193e-014 -1.09332e-014
rhumerus -34.4611 77.4282 -76.1754
rradius 88.775
rwrist 39.1366
rhand -52.5833 35.2776
rfingers 7.12502
rthumb -25.0666 6.90267
lclavicle 4.59193e-014 -1.09332e-014
lhumerus -9.35282 -82.9098 51.9641
lradius 84.1255
lwrist -22.7391
lhand -40.1271 11.0737
lfingers 7.12502
lthumb -13.0903 40.6429
rfemur -38.5855 -6.13643 4.85087
rtibia 78.5654
rfoot 5.98695 -2.41902
rtoes -5.22733
lfemur -35.9015 7.7258 -8.37652
ltibia 72.3378
lfoot 9.98099 -11.0034
ltoes -6.0178
652
root 0.104055 15.6623 -6.29302 339.34 -26.9889 -358.756
lowerback 24.1593 1.68046 -1.49134
upperback 13.3545 1.51144 -0.793915
thorax 1.25736 0.564095 -0.34671
lowerneck -8.52547 0.451245 -5.60497
upperneck 4.8239 0.935358 4.53275
head 3.04695 0.528024 2.55473
rclavicle 3.77691e-014 -3.20043e-014
rhumerus -34.0488 77.474 -75.7715
rradius 88.7635
rwrist 39.0107
rhand -52.5711 36.2482
rfingers 7.12502
rthumb -25.0548 7.87163
lclavicle 3.77691e-014 -3.20043e-014
lhumerus -8.01563 -82.9747 50.6424
lradius 84.1152
lwrist -22.632
lhand -40.2902 10.9494
lfingers 7.12502
lthumb -13.2475 40.5085
rfemur -38.6243 -6.10448 4.89315
rtibia 78.5871
rfoot 5.94177 -2.4397
rtoes -5.23882
lfemur -35.9293 7.71231 -8.33756
ltibia 72.3486
lfoot 10.0133 -11.0281
ltoes -6.14578
653
root 0.101054 15.6621 -6.29036 339.379 -26.983 -358.715
lowerback 24.1722 1.71273 -1.57742
upperback 13.3545 1.53565 -0.777872
thorax 1.24873 0.570742 -0.28641
lowerneck -8.5807 0.513301 -5.61697
upperneck 4.51199 1.0138 4.76238
head 2.94719 0.577936 2.63447
rclavicle 5.46658e-015 2.00773e-014
rhumerus -34.1579 77.5776 -75.7849
rradius 88.8011
rwrist 38.9246
rhand -52.5746 36.5187
rfingers 7.12502
rthumb -25.0582 8.14257
lclavicle 5.46658e-015 2.00773e-014
lhumerus -7.62073 -82.9716 50.285
lradius 84.1096
lwrist -22.5672
lhand -40.2775 10.6583
lfingers 7.12502
lthumb -13.2352 40.2182
rfemur -38.7008 -6.0927 4.86117
rtibia 78.6202
rfoot 5.92644 -2.46151
rtoes -5.21772
lfemur -35.9874 7.72779 -8.38535
ltibia 72.358
lfoot 9.93639 -11.1696
ltoes -7.04561
654
root 0.0971962 15.6619 -6.28731 339.392 -26.9623 -358.679
lowerback 24.1903 1.74637 -1.68355
upperback 13.3645 1.55773 -0.742142
thorax 1.24785 0.574168 -0.193148
lowerneck -8.59993 0.574845 -5.6245
upperneck 4.20404 1.09344 4.94164
head 2.84177 0.62589 2.69547
rclavicle 3.88624e-014 -1.61016e-014
rhumerus -34.2516 77.6876 -75.7667
rradius 88.8534
rwrist 38.847
rhand -52.6313 36.5919
rfingers 7.12502
rthumb -25.1125 8.22341
lclavicle 3.88624e-014 -1.61016e-014
lhumerus -7.39747 -82.9437 50.1096
lradius 84.1185
lwrist -22.5657
lhand -40.2922 10.5763
lfingers 7.12502
lthumb -13.2495 40.1352
rfemur -38.7357 -6.07278 4.82698
rtibia 78.6532
rfoot 5.91017 -2.48045
rtoes -5.23385
lfemur -36.022 7.74275 -8.42531
ltibia 72.3616
lfoot 9.90189 -11.2403
ltoes -7.48628
655
root 0.0944543 15.664 -6.28316 339.359 -26.9197 -358.62
lowerback 24.2241 1.78244 -1.78867
upperback 13.3858 1.58251 -0.710986
thorax 1.25228 0.579048 -0.106209
lowerneck -8.51568 0.633046 -5.69399
upperneck 3.83217 1.16963 5.17594
head 2.69592 0.671823 2.78352
rclavicle 1.09332e-015 -3.97569e-016
rhumerus -34.2924 77.8137 -75.711
rradius 88.8996
rwrist 38.7932
rhand -52.7065 36.3536
rfingers 7.12502
rthumb -25.1845 7.99515
lclavicle 1.09332e-015 -3.97569e-016
lhumerus -7.15564 -83.0009 49.9417
lradius 84.1268
lwrist -22.5239
lhand -40.3837 10.8372
lfingers 7.12502
lthumb -13.3376 40.3903
rfemur -38.6963 -6.04581 4.75071
rtibia 78.6718
rfoot 5.86591 -2.45185
rtoes -5.33612
lfemur -36.0014 7.66439 -8.49084
ltibia 72.3588
lfoot 9.9451 -11.1012
ltoes -7.00891
656
root 0.0933583 15.6645 -6.27991 339.355 -26.8711 -358.567
lowerback 24.2815 1.81619 -1.84401
upperback 13.3923 1.61346 -0.699511
thorax 1.23048 0.591159 -0.0706258
lowerneck -8.37481 0.718097 -5.72121
upperneck 3.4221 1.27516 5.43673
head 2.52516 0.732819 2.87203
rclavicle -3.33958e-014 2.0276e-014
rhumerus -34.2323 77.9251 -75.5946
rradius 88.9188
rwrist 38.6718
rhand -52.7755 36.5218
rfingers 7.12502
rthumb -25.2507 8.17271
lclavicle -3.33958e-014 2.0276e-014
lhumerus -7.00103 -83.1142 49.8601
lradius 84.1344
lwrist -22.4691
lhand -40.5212 11.1187
lfingers 7.12502
lthumb -13.4701 40.6631
rfemur -38.6935 -6.03439 4.67501
rtibia 78.6898
rfoot 5.81583 -2.41793
rtoes -5.46592
lfemur -36.0331 7.57245 -8.57016
ltibia 72.3788
lfoot 9.89739 -11.0626
ltoes -7.25143
657
root 0.0921895 15.6632 -6.27658 339.405 -26.8488 -358.578
lowerback 24.3423 1.81468 -1.85041
upperback 13.3273 1.61017 -0.664088
thorax 1.1273 0.58936 -0.0300895
lowerneck -8.138 0.866912 -5.59579
upperneck 3.06886 1.45739 5.46971
head 2.35053 0.824835 2.85557
rclavicle -1.86858e-014 8.34896e-015
rhumerus -34.9147 78.0666 -76.1602
rradius 88.9751
rwrist 38.5704
rhand -52.8574 36.9882
rfingers 7.12502
rthumb -25.3291 8.65013
lclavicle -1.86858e-014 8.34896e-015
lhumerus -8.48628 -83.2111 51.3961
lradius 84.1516
lwrist -22.5124
lhand -40.6841 11.2015
lfingers 7.12502
lthumb -13.6272 40.7355
rfemur -38.7272 -6.01577 4.67517
rtibia 78.7042
rfoot 5.77488 -2.43855
rtoes -5.53816
lfemur -36.1117 7.55089 -8.58365
ltibia 72.4191
lfoot 9.7946 -11.1394
ltoes -7.95422
